<svg xmlns="http://www.w3.org/2000/svg" xmlns:xlink="http://www.w3.org/1999/xlink" width="815.315" height="818.385" viewBox="0 0 815.315 818.385">
  <defs>
    <filter id="Ellipse_35" x="0" y="142.197" width="674.83" height="676.188" filterUnits="userSpaceOnUse">
      <feOffset dy="3" input="SourceAlpha"/>
      <feGaussianBlur stdDeviation="3" result="blur"/>
      <feFlood flood-opacity="0.161"/>
      <feComposite operator="in" in2="blur"/>
      <feComposite in="SourceGraphic"/>
    </filter>
    <filter id="Ellipse_36" x="41.19" y="69.48" width="700.907" height="701.483" filterUnits="userSpaceOnUse">
      <feOffset dy="3" input="SourceAlpha"/>
      <feGaussianBlur stdDeviation="3" result="blur-2"/>
      <feFlood flood-opacity="0.161"/>
      <feComposite operator="in" in2="blur-2"/>
      <feComposite in="SourceGraphic"/>
    </filter>
    <filter id="Path_6" x="82.232" y="0" width="733.083" height="732.555" filterUnits="userSpaceOnUse">
      <feOffset dy="3" input="SourceAlpha"/>
      <feGaussianBlur stdDeviation="3" result="blur-3"/>
      <feFlood flood-opacity="0.161"/>
      <feComposite operator="in" in2="blur-3"/>
      <feComposite in="SourceGraphic"/>
    </filter>
  </defs>
  <g id="Group_35" data-name="Group 35" transform="translate(286.915 -339.709)" opacity="0.3">
    <g transform="matrix(1, 0, 0, 1, -286.92, 339.71)" filter="url(#Ellipse_35)">
      <ellipse id="Ellipse_35-2" data-name="Ellipse 35" cx="245.5" cy="218" rx="245.5" ry="218" transform="matrix(0.69, -0.72, 0.72, 0.69, 10.06, 502.45)" fill="none" stroke="#797de0" stroke-width="1.5"/>
    </g>
    <g transform="matrix(1, 0, 0, 1, -286.92, 339.71)" filter="url(#Ellipse_36)">
      <ellipse id="Ellipse_36-2" data-name="Ellipse 36" cx="246.665" cy="235" rx="246.665" ry="235" transform="matrix(0.69, -0.72, 0.72, 0.69, 51.25, 431.41)" fill="none" stroke="#797de0" stroke-width="1.5"/>
    </g>
    <g transform="matrix(1, 0, 0, 1, -286.92, 339.71)" filter="url(#Path_6)">
      <path id="Path_6-2" data-name="Path 6" d="M225.215-19.405c136.229,0,268.115,124.618,268.115,254.405S359.986,495.325,223.757,495.325,0,364.787,0,235,88.986-19.405,225.215-19.405Z" transform="matrix(0.69, -0.72, 0.72, 0.69, 106.25, 375.41)" fill="none" stroke="#797de0" stroke-width="1.5"/>
    </g>
  </g>
</svg>
