<svg xmlns="http://www.w3.org/2000/svg" width="12.171" height="9.908" viewBox="0 0 12.171 9.908">
  <path id="twitter" d="M14.171,5.036a5.166,5.166,0,0,1-1.436.389,2.513,2.513,0,0,0,1.1-1.381,5,5,0,0,1-1.588.609,2.495,2.495,0,0,0-4.26,2.276A7.083,7.083,0,0,1,2.846,4.318a2.532,2.532,0,0,0-.335,1.26A2.489,2.489,0,0,0,3.619,7.653a2.465,2.465,0,0,1-1.132-.31v.03A2.5,2.5,0,0,0,4.495,9.807a2.392,2.392,0,0,1-.669.1,2.982,2.982,0,0,1-.469-.043A2.5,2.5,0,0,0,5.688,11.6a5,5,0,0,1-3.079,1.071A4.826,4.826,0,0,1,2,12.631a7.041,7.041,0,0,0,3.828,1.126,7.053,7.053,0,0,0,7.126-7.108V6.326a5.13,5.13,0,0,0,1.217-1.29Z" transform="translate(-2 -3.849)" fill="#fff"/>
</svg>
